<svg width="32" height="32" viewBox="0 0 32 32" fill="none" xmlns="http://www.w3.org/2000/svg">
  <defs>
    <linearGradient id="mobiusGradient" x1="0%" y1="0%" x2="100%" y2="100%">
      <stop offset="0%" style="stop-color:#667AFF;stop-opacity:1" />
      <stop offset="33%" style="stop-color:#2EA6FF;stop-opacity:1" />
      <stop offset="66%" style="stop-color:#31DDED;stop-opacity:1" />
      <stop offset="100%" style="stop-color:#89EC9B;stop-opacity:1" />
    </linearGradient>
  </defs>
  
  <!-- Möbius strip with gradient -->
  <path d="M 16 4 C 24 4 28 8 28 16 C 28 24 24 28 16 28 C 12 28 8 26 6 22 C 5 20 6 18 8 18 C 10 18 11 19 12 20 C 13 22 14 23 16 23 C 20 23 23 20 23 16 C 23 12 20 9 16 9 C 14 9 12 10 11 11 C 10 12 10 13 11 14 C 12 15 13 15 14 14 C 15 13 15 13 16 13 C 18 13 19 14 19 16 C 19 18 18 19 16 19 C 15 19 14 18 14 17" 
        stroke="url(#mobiusGradient)" 
        stroke-width="2.5" 
        stroke-linecap="round" 
        fill="none"/>
</svg>
