<svg width="123" height="123" viewBox="0 0 123 123" fill="none" xmlns="http://www.w3.org/2000/svg">
<rect x="0.707107" y="101.239" width="142.173" height="28.7438" transform="rotate(-45 0.707107 101.239)" fill="#C8FFC3" stroke="#3DBF44"/>
<path d="M77.7117 65.5914L68.4434 56.3231" stroke="#3DBF44" stroke-width="2"/>
<path d="M70.5822 72.7208L65.948 68.0866" stroke="#3DBF44" stroke-width="2"/>
<path d="M84.8412 58.4619L80.207 53.8277" stroke="#3DBF44" stroke-width="2"/>
<path d="M99.1002 44.2028L94.4661 39.5687" stroke="#3DBF44" stroke-width="2"/>
<path d="M113.359 29.9439L108.725 25.3097" stroke="#3DBF44" stroke-width="2"/>
<path d="M91.9707 51.3324L82.7024 42.064" stroke="#3DBF44" stroke-width="2"/>
<path d="M106.23 37.0733L96.9614 27.805" stroke="#3DBF44" stroke-width="2"/>
<path d="M34.9348 108.368L25.6665 99.1" stroke="#3DBF44" stroke-width="2"/>
<path d="M27.8053 115.498L23.1711 110.864" stroke="#3DBF44" stroke-width="2"/>
<path d="M42.0643 101.239L37.4302 96.6045" stroke="#3DBF44" stroke-width="2"/>
<path d="M56.3231 86.9798L51.689 82.3456" stroke="#3DBF44" stroke-width="2"/>
<path d="M49.1936 94.1093L39.9253 84.841" stroke="#3DBF44" stroke-width="2"/>
<path d="M63.4527 79.8503L54.1843 70.582" stroke="#3DBF44" stroke-width="2"/>
</svg>
