<svg width="153" height="126" viewBox="0 0 153 126" fill="none" xmlns="http://www.w3.org/2000/svg">
<mask id="mask0_2021_262" style="mask-type:alpha" maskUnits="userSpaceOnUse" x="15" y="2" width="123" height="121">
<path d="M95.3982 36.4774C117.569 10.5664 134.113 -7.44148 136.623 7.32803C139.133 22.0975 146.258 99.9065 62.1482 117.675C-21.962 135.444 29.0454 94.6456 55.2631 77.1644C81.4807 59.6833 -0.553715 61.4687 50.2454 22.0086C101.045 -17.4516 73.2272 62.3885 95.3982 36.4774Z" fill="#D9D9D9"/>
</mask>
<g mask="url(#mask0_2021_262)">
<path d="M15.1672 32.2057C15.1672 14.5326 29.4941 0.205688 47.1672 0.205688H141.167V125.206H15.1672V32.2057Z" fill="#C8FFC3"/>
<line x1="17.6672" y1="12.2057" x2="17.6672" y2="125.206" stroke="#3DBF44"/>
<line x1="22.6672" y1="8.20569" x2="22.6672" y2="125.206" stroke="#3DBF44"/>
<line x1="29.6672" y1="1.20762" x2="29.1892" y2="125.208" stroke="#3DBF44"/>
<line x1="36.5647" y1="0.205688" x2="36.5647" y2="125.206" stroke="#3DBF44"/>
<line x1="46.3989" y1="0.205688" x2="46.3989" y2="125.206" stroke="#3DBF44"/>
<line x1="61.1504" y1="0.205688" x2="61.1504" y2="125.206" stroke="#3DBF44"/>
<line x1="83.2771" y1="0.205688" x2="83.2771" y2="125.206" stroke="#3DBF44"/>
<line x1="122.614" y1="0.205688" x2="122.614" y2="125.206" stroke="#3DBF44"/>
</g>
</svg>
