<svg width="126" height="109" viewBox="0 0 126 109" fill="none" xmlns="http://www.w3.org/2000/svg">
<mask id="mask0_2021_273" style="mask-type:alpha" maskUnits="userSpaceOnUse" x="0" y="0" width="126" height="109">
<path d="M20.1475 51.5178C72.756 48.6701 3.01911 9.20961 20.1475 2.2938C37.2759 -4.62199 61.3371 14.0913 90.7 2.2938C120.063 -9.50367 142.085 26.7024 110.683 53.9586C79.2811 81.2149 77.6498 43.7885 54.812 93.826C31.9742 143.863 -32.461 54.3655 20.1475 51.5178Z" fill="#D9D9D9"/>
</mask>
<g mask="url(#mask0_2021_273)">
<path d="M-0.386475 20C-0.386475 2.32686 13.9404 -12 31.6135 -12H125.386V113.773H-0.386475V20Z" fill="#C8FFC3"/>
<line x1="-0.740028" y1="113.419" x2="125.033" y2="-12.3534" stroke="#3DBF44"/>
<line x1="27.0327" y1="115.096" x2="127.033" y2="15.0958" stroke="#3DBF44"/>
<line x1="-0.740028" y1="83.9702" x2="95.5836" y2="-12.3534" stroke="#3DBF44"/>
<line x1="-0.740028" y1="55.7479" x2="67.3614" y2="-12.3535" stroke="#3DBF44"/>
<line x1="54.9314" y1="115.419" x2="126.931" y2="43.4194" stroke="#3DBF44"/>
<line x1="80.0859" y1="115.419" x2="128.086" y2="67.4194" stroke="#3DBF44"/>
<line x1="101.646" y1="115.332" x2="126.646" y2="90.3325" stroke="#3DBF44"/>
<line x1="119.646" y1="115.738" x2="126.646" y2="108.738" stroke="#3DBF44"/>
<line x1="-0.740028" y1="31.207" x2="42.8203" y2="-12.3534" stroke="#3DBF44"/>
</g>
</svg>
