<svg width="124" height="119" viewBox="0 0 124 119" fill="none" xmlns="http://www.w3.org/2000/svg">
<mask id="mask0_2021_244" style="mask-type:alpha" maskUnits="userSpaceOnUse" x="0" y="0" width="124" height="119">
<path d="M18.9789 57.8557C-33.129 79.8057 35.4157 15.3494 65.1416 4.54866C94.8675 -6.25212 146.276 2.80661 113.403 25.105C80.5291 47.4034 143.129 47.0549 109.905 98.9683C76.6822 150.882 104.133 86.4256 82.9772 78.4121C61.8214 70.3986 62.3438 86.7739 38.2133 96.5294C14.0828 106.285 71.0868 35.9058 18.9789 57.8557Z" fill="#D9D9D9"/>
</mask>
<g mask="url(#mask0_2021_244)">
<path d="M-2 31C-2 11.1178 14.1178 -5 34 -5H124.691V121.691H-2V31Z" fill="#C8FFC3"/>
<path d="M125 -5C125 67.9246 75.8687 122 -1.69092 122" stroke="#3DBF44"/>
<path d="M145 15C145 87.9246 95.8687 142 18.3091 142" stroke="#3DBF44"/>
<path d="M105 -25C105 47.9246 55.8687 102 -21.6909 102" stroke="#3DBF44"/>
<path d="M85.0001 -45C85.0001 27.9246 35.8687 82 -41.6909 82" stroke="#3DBF44"/>
<path d="M65.0001 -65C65.0001 7.92457 15.8687 62 -61.6909 62" stroke="#3DBF44"/>
<path d="M45.0001 -85C45.0001 -12.0754 -4.13131 42 -81.6909 42" stroke="#3DBF44"/>
</g>
</svg>
