<svg version="1.1" id="Layer_1" xmlns="http://www.w3.org/2000/svg" xmlns:xlink="http://www.w3.org/1999/xlink" x="0px" y="0px"
	 width="100%" viewBox="0 0 200 200" enable-background="new 0 0 200 200" xml:space="preserve">
<path fill="#FFFFFF" opacity="1.000000" stroke="none" 
	d="
M45.253113,88.134415 
	C45.557510,88.094131 45.801376,87.950829 46.414700,87.379646 
	C50.021610,85.791519 53.198532,84.528252 56.984043,83.022995 
	C56.984043,79.600624 56.911037,75.480614 57.000343,71.364128 
	C57.152256,64.361794 60.894695,59.268784 66.985283,57.592892 
	C72.624550,56.041187 77.051315,58.243748 81.058456,64.991333 
	C81.405464,66.243217 81.775475,67.110291 82.334068,68.083763 
	C82.737366,68.428047 82.794861,68.699257 82.473640,69.351036 
	C82.175743,97.603142 82.088921,125.507996 82.072052,153.412903 
	C82.071533,154.270264 82.798080,155.128052 83.474197,156.178680 
	C86.753006,158.379089 87.221268,155.867920 88.326447,153.683517 
	C88.745934,151.570786 88.992653,149.759109 88.994942,147.947159 
	C89.038239,113.630165 89.052673,79.313141 89.300293,44.794411 
	C92.833206,42.615322 94.324196,39.519409 94.952820,35.898026 
	C94.998222,35.932056 94.887650,35.906528 95.357178,35.941643 
	C99.318314,35.895943 102.809929,35.815136 106.254944,35.778244 
	C106.208344,35.822159 106.171242,35.699589 106.246460,35.996529 
	C106.853622,36.537518 107.385574,36.781570 108.055130,37.229172 
	C108.395477,37.704983 108.658264,37.893555 109.114304,38.224762 
	C109.556747,38.599659 109.865990,38.748238 110.133125,38.909092 
	C110.091019,38.921368 110.097038,38.833851 110.166748,39.087715 
	C110.507088,39.551132 110.777733,39.760685 111.021973,39.976059 
	C110.995575,39.981884 111.043915,39.952942 111.048576,40.267288 
	C111.428505,41.033836 111.803780,41.486034 112.179047,41.938232 
	C112.179047,41.938232 112.080170,41.933937 112.055191,42.369034 
	C112.022400,79.104225 111.991318,115.404381 112.092293,151.704178 
	C112.096313,153.148956 113.355522,154.590225 114.318665,156.212082 
	C115.765862,156.260956 116.924301,156.130859 118.468048,155.894073 
	C119.230721,153.941452 119.930496,152.096664 119.937141,150.249405 
	C120.038162,122.191345 120.048416,94.132965 120.364471,65.894104 
	C121.419312,64.127068 122.189560,62.540596 122.973846,60.970818 
	C122.987885,60.987507 122.948235,60.978020 123.186005,60.890217 
	C123.620453,60.535660 123.817116,60.268906 124.075073,59.790501 
	C124.136360,59.578850 124.214172,59.145081 124.214172,59.145081 
	C124.214172,59.145081 124.098808,59.085751 124.420258,59.104427 
	C125.124954,59.034119 125.508194,58.945137 126.100967,59.114861 
	C129.294525,58.782467 132.303101,57.142712 135.216095,59.738361 
	C135.418030,59.918293 136.504944,59.105068 137.464783,58.819679 
	C138.125031,58.978947 138.500778,59.072235 138.876541,59.165524 
	C138.876541,59.165524 138.940292,59.029087 138.923828,59.279160 
	C138.907379,59.529236 139.003052,59.920921 139.104080,60.165684 
	C139.495987,60.597637 139.786850,60.784828 140.052216,60.968555 
	C140.026688,60.965096 140.064270,60.928371 140.051025,61.308819 
	C141.357895,65.127235 142.677979,68.565208 143.999023,72.001587 
	C144.000000,72.000000 143.996887,72.000206 143.832886,72.369751 
	C144.064453,76.491470 144.460022,80.243652 145.257919,84.028282 
	C148.395401,84.757149 151.130554,85.453568 153.865692,86.149986 
	C153.865692,86.149986 154.003586,86.036690 154.080887,86.375786 
	C155.488373,88.374985 156.818558,90.035095 158.112808,92.142731 
	C158.376419,96.686813 158.846359,100.779549 158.938339,104.880768 
	C159.105057,112.316040 159.046661,119.756355 159.077286,127.544556 
	C157.600708,130.213608 156.129059,132.532669 154.657410,134.851746 
	C154.657425,134.851746 154.276703,134.928436 153.786896,135.178589 
	C148.457169,138.181351 143.786545,137.235687 139.184952,134.782593 
	C139.184952,134.782593 138.987030,134.917282 138.947205,134.560135 
	C137.374649,131.489807 135.841888,128.776627 134.539551,125.713104 
	C134.844482,107.647758 134.930328,89.932762 134.953568,72.217690 
	C134.954529,71.484772 134.369202,70.751083 133.859589,69.739746 
	C131.771255,66.741302 130.365784,68.142639 128.720825,70.304062 
	C128.286652,71.406540 128.025040,72.213921 128.024445,73.021500 
	C128.004501,99.912773 128.000809,126.804085 128.041962,153.695312 
	C128.043640,154.799469 128.501160,155.902954 128.724670,157.346161 
	C127.392601,160.087097 126.082161,162.488586 124.771713,164.890091 
	C124.467613,164.905960 124.215652,165.028778 123.561966,165.575256 
	C113.640671,170.277527 107.685539,167.615524 103.148613,156.495026 
	C103.149345,134.406555 103.126259,112.784035 103.112564,91.161514 
	C103.103714,77.189865 103.160324,63.217716 103.028191,49.247295 
	C103.014839,47.835705 101.899132,46.434536 101.294998,45.028530 
	C100.203011,46.022289 99.111038,47.016045 97.718384,48.299934 
	C97.274109,50.231262 97.017509,51.871494 97.003532,53.513790 
	C96.697731,89.432259 96.418884,125.350952 95.957207,161.549988 
	C91.766792,166.581482 87.183090,169.872223 80.656487,166.950317 
	C74.170670,164.046661 72.178345,158.492081 72.265823,151.853897 
	C72.278976,150.856033 72.267342,149.857834 72.267281,148.859787 
	C72.265625,124.241295 72.321182,99.622444 72.169090,75.004883 
	C72.154739,72.681831 70.835098,70.366844 70.121483,68.048119 
	C69.254189,70.411888 67.670036,72.765175 67.635254,75.141129 
	C67.399208,91.270042 67.737961,107.409348 67.374100,123.533630 
	C67.182686,132.015991 61.339565,137.348099 53.904743,137.032944 
	C46.821106,136.732666 41.843502,131.005951 41.694572,122.711609 
	C41.566177,115.561256 41.229515,108.372238 41.806927,101.267113 
	C42.167881,96.825523 44.052307,92.507751 45.253113,88.134415 
M52.995991,126.004005 
	C52.995991,126.004005 53.003799,125.970161 53.085880,126.616501 
	C55.526596,128.639374 56.390652,127.114685 56.975109,124.977051 
	C56.975109,124.977051 56.895672,124.995918 57.532318,124.441101 
	C57.685635,117.018463 57.931362,109.595924 57.938660,102.173141 
	C57.940998,99.797768 57.312195,97.421783 56.259155,94.895332 
	C54.842381,95.600769 53.425602,96.306198 51.405685,97.590294 
	C51.279438,106.390976 51.153191,115.191650 51.104111,124.635590 
	C51.746002,125.089050 52.387894,125.542511 52.995991,126.004005 
M148.917755,95.510628 
	C148.258942,95.362984 147.600143,95.215347 146.343735,94.977684 
	C145.944580,95.028374 145.545441,95.079063 144.624359,95.219872 
	C144.397934,95.484123 144.171509,95.748383 143.395523,96.633156 
	C143.276108,105.031815 143.116547,113.430435 143.107758,121.829216 
	C143.106995,122.560448 144.098907,123.292709 144.863464,124.608749 
	C144.923126,125.024033 144.982773,125.439323 145.254364,126.365829 
	C145.559296,126.559158 145.864227,126.752495 146.558746,126.933388 
	C146.558746,126.933388 146.940430,126.854500 147.324188,127.350410 
	C147.869995,126.527100 148.415802,125.703781 149.072342,124.164619 
	C149.196564,123.453911 149.320786,122.743202 150.144760,121.726372 
	C150.372437,113.862755 150.650024,105.999710 150.740738,98.134514 
	C150.748688,97.445091 149.531097,96.741531 148.972687,96.043449 
	C148.972687,96.043449 148.921356,96.117302 148.917755,95.510628 
z"/>
</svg>