<svg version="1.1" id="Layer_1" xmlns="http://www.w3.org/2000/svg" xmlns:xlink="http://www.w3.org/1999/xlink" x="0px" y="0px"
	 width="100%" viewBox="0 0 200 200" enable-background="new 0 0 200 200" xml:space="preserve">
<path fill="#FFFFFF" opacity="1.000000" stroke="none" 
	d="
M179.464966,103.247070 
	C179.368881,101.831947 179.272781,100.416832 179.479477,98.308800 
	C179.375473,96.534790 179.271484,94.760773 179.381897,92.078056 
	C179.291550,87.712227 179.201218,83.346397 179.323227,78.102417 
	C179.254181,75.395470 179.185150,72.688515 179.212036,69.188065 
	C178.235641,66.404091 177.259262,63.620121 176.111237,60.158749 
	C173.450073,57.565163 170.788910,54.971581 167.822968,51.827602 
	C163.549744,49.214962 159.276520,46.602325 154.594528,43.457081 
	C150.409363,40.942867 146.224213,38.428650 141.638748,35.411263 
	C140.144348,34.582767 138.649948,33.754269 136.762604,32.366470 
	C133.492081,30.366936 130.221542,28.367401 126.429840,25.912886 
	C124.094902,24.555462 121.759964,23.198038 119.020096,21.271280 
	C117.026909,20.153702 115.033714,19.036123 112.626633,17.343224 
	C110.081543,16.599953 107.536446,15.856681 104.122612,14.897391 
	C101.229729,15.152707 98.336853,15.408024 94.740036,15.718765 
	C90.458954,18.058416 86.177872,20.398066 81.217384,22.910154 
	C78.721603,24.563158 76.225830,26.216162 73.068520,27.990324 
	C70.687370,29.584892 68.306229,31.179461 65.248917,32.945217 
	C62.807198,34.556114 60.365475,36.167011 57.248737,37.943657 
	C54.745285,39.594463 52.241837,41.245270 49.065731,43.011688 
	C43.988235,46.178398 38.801952,49.185612 33.862495,52.554699 
	C28.447124,56.248402 24.724440,61.201000 23.734558,68.739166 
	C23.657408,71.157028 23.580257,73.574898 23.275162,76.868248 
	C23.342546,79.576561 23.409933,82.284866 23.259872,85.879066 
	C23.344711,88.916931 23.429548,91.954796 23.285847,95.876663 
	C23.381313,98.918495 23.476780,101.960335 23.327923,105.896561 
	C23.408979,109.919823 23.490038,113.943085 23.299847,118.867455 
	C23.289427,122.673241 23.183588,126.481674 23.288639,130.284271 
	C23.501074,137.973923 26.244562,144.619263 32.589249,149.149811 
	C37.265789,152.489182 42.415905,155.165344 47.760036,158.715988 
	C49.144855,159.531433 50.529675,160.346893 52.221909,161.758881 
	C54.465500,162.983047 56.709091,164.207214 59.451183,165.956619 
	C62.432529,167.681503 65.413879,169.406387 68.799957,171.717834 
	C69.814095,172.294388 70.828232,172.870941 72.270218,173.952164 
	C75.813385,176.051041 79.356560,178.149918 83.279831,180.781342 
	C85.189995,181.844238 87.100159,182.907120 89.431114,184.550354 
	C92.270500,185.411972 95.109879,186.273605 98.609299,187.517059 
	C101.845573,187.116074 105.508606,187.551468 108.238739,186.158508 
	C116.695091,181.843842 124.796501,176.833527 133.711426,171.871841 
	C144.524902,165.255569 155.364822,158.681717 166.122559,151.976028 
	C167.686691,151.001068 168.857864,149.395645 170.796951,147.966721 
	C171.531189,147.307861 172.265427,146.649017 173.701797,145.947083 
	C175.203476,142.983719 176.705139,140.020370 178.731903,136.549088 
	C178.907913,134.369980 179.083923,132.190872 179.555283,129.190659 
	C179.443115,128.048492 179.330948,126.906334 179.447922,125.421776 
	C179.447922,125.421776 179.238174,125.067177 179.557266,124.219986 
	C179.452545,121.815140 179.347809,119.410301 179.551682,116.162445 
	C179.438995,113.789070 179.326309,111.415703 179.512115,108.242729 
	C179.394012,106.845177 179.275909,105.447617 179.464966,103.247070 
M94.851913,116.997505 
	C97.087105,117.368439 99.318726,117.762901 101.558502,118.103691 
	C103.807755,118.445930 106.119293,119.207092 108.308540,118.956100 
	C114.272881,118.272308 117.009628,114.272240 119.240738,108.869110 
	C124.031120,97.268135 119.511879,86.252831 107.557663,82.841248 
	C105.495644,82.252785 103.087372,82.770241 100.850708,82.935135 
	C99.073067,83.066193 97.265442,83.837608 95.554146,83.632408 
	C89.548218,82.912209 86.127777,85.744644 85.965149,91.701904 
	C85.888794,94.498764 85.561302,97.304161 85.133652,100.072639 
	C84.372894,104.997574 89.522682,114.940018 94.851913,116.997505 
z"/>
</svg>