<svg version="1.1" id="Layer_1" xmlns="http://www.w3.org/2000/svg" xmlns:xlink="http://www.w3.org/1999/xlink" x="0px" y="0px"
	 width="100%" viewBox="0 0 244 206" enable-background="new 0 0 244 206" xml:space="preserve">
<path fill="#FFFFFF" opacity="1.000000" stroke="none" 
	d="
M74.048828,115.009636 
	C73.882591,105.252907 73.622017,95.496590 73.579025,85.739319 
	C73.542542,77.460381 73.757324,69.180336 74.127472,60.363159 
	C74.458641,59.729538 74.599907,59.586971 74.574730,59.545540 
	C74.460747,59.357944 74.299751,59.198914 74.155678,59.029598 
	C76.990349,37.877346 94.858681,19.572065 115.311111,17.287607 
	C129.410492,15.712760 142.527939,18.300072 153.768036,27.701273 
	C164.859467,36.978115 171.041473,48.930309 171.599670,63.199108 
	C172.237442,79.501686 172.026886,95.849228 171.780441,112.171127 
	C171.557465,126.939606 170.630814,141.696625 170.329224,156.465118 
	C170.177551,163.892014 176.700775,168.234177 182.166870,164.440826 
	C184.056671,163.129333 185.388748,160.320297 185.964722,157.949707 
	C187.281067,152.531830 190.485550,149.405472 195.049011,150.030457 
	C199.415283,150.628433 201.366516,153.593246 201.138000,159.282532 
	C200.635941,171.782684 190.095383,181.669067 177.468048,181.483429 
	C165.127136,181.302002 154.280121,170.575958 154.062958,158.049423 
	C153.883926,147.722931 154.197632,137.385330 153.867889,127.066223 
	C153.802429,125.018105 152.294998,122.098244 150.599289,121.210892 
	C147.057983,119.357758 144.054581,121.971115 144.010376,126.557190 
	C143.917252,136.219360 144.005310,145.883148 143.982162,155.546173 
	C143.967087,161.845734 141.051254,165.684006 136.239288,165.850357 
	C131.252350,166.022766 128.113129,162.061691 128.100998,155.472366 
	C128.083496,145.976074 128.033203,136.478531 128.166489,126.983887 
	C128.219025,123.241394 127.216209,120.711273 122.984390,120.773087 
	C118.744553,120.835022 117.897469,123.447388 117.953987,127.146919 
	C118.101578,136.807816 118.045013,146.472382 118.012543,156.135300 
	C117.992706,162.038361 114.981796,165.743561 110.253311,165.850922 
	C105.586143,165.956879 102.264168,162.160995 102.214729,156.373657 
	C102.135025,147.044418 102.212288,137.713959 102.180908,128.384140 
	C102.168922,124.819305 102.342094,120.903160 97.212799,120.859406 
	C92.171745,120.816406 92.060585,124.518631 92.070190,128.219025 
	C92.095695,138.048676 92.151405,147.879166 92.056168,157.707977 
	C91.935402,170.171783 83.288017,179.905350 71.328232,181.223022 
	C59.438972,182.532944 48.045650,174.405075 45.377800,162.597275 
	C44.980522,160.838928 44.866501,158.942261 45.029797,157.146713 
	C45.395203,153.128738 47.930023,150.732040 51.741837,150.208481 
	C55.630329,149.674393 58.478523,151.637787 59.978168,155.284439 
	C60.413765,156.343658 60.582134,157.543060 60.703007,158.696030 
	C61.158306,163.039017 64.167412,165.798126 67.784790,166.318130 
	C72.171150,166.948639 76.078453,162.476471 76.351952,157.689194 
	C76.570183,153.869247 76.420952,150.027954 76.423798,146.196136 
	C76.428749,139.531906 76.655998,132.856216 76.325302,126.208427 
	C76.166100,123.007957 74.948120,119.860161 74.334076,116.223801 
	C74.321983,115.509277 74.185402,115.259453 74.048828,115.009636 
M105.006592,95.496452 
	C104.781662,91.271652 103.649376,87.259132 99.188362,86.058083 
	C97.177193,85.516617 94.062737,86.222694 92.468872,87.569702 
	C89.057053,90.453072 88.255524,94.576088 89.696442,98.944382 
	C89.954971,99.728149 90.098854,100.755119 90.664749,101.195099 
	C92.668869,102.753242 94.888702,105.311371 96.921738,105.217415 
	C99.236092,105.110458 101.694374,102.828514 103.585373,100.976555 
	C104.603127,99.979828 104.564354,97.904312 105.006592,95.496452 
M153.023788,104.507645 
	C157.576630,101.148521 158.046631,96.491730 156.776886,91.552322 
	C155.640869,87.133095 151.486969,84.666405 147.799057,85.783623 
	C143.017181,87.232262 140.506409,93.125313 142.146683,99.050354 
	C143.500931,103.942230 147.118073,105.998566 153.023788,104.507645 
z"/>
</svg>